ffmpeg started on 2025-06-16 at 16:59:56
Report written to "D:\Convert\FFMetrics\reports\psnr_report-6.txt"
Log level: 32
Command line:
ffmpeg -hide_banner -nostdin -i "G:\\\xc0\xed\xe8\xec\xe5\\[\xd2\xee\xef]\\\xd0\xfb\xf6\xe0\xf0\xfc-\xe2\xe0\xec\xef\xe8\xf0\\\xd2\xc2-2\\[JamClub] Vampire Knight Guilty - 07_HEVC.mkv" -i "G:\\\xc0\xed\xe8\xec\xe5\\[\xd2\xee\xef]\\\xd0\xfb\xf6\xe0\xf0\xfc-\xe2\xe0\xec\xef\xe8\xf0\\\xd2\xc2-2\\[JamClub] Vampire Knight Guilty - 07.mp4" -lavfi "[0:v]settb=AVTB,setpts=PTS-STARTPTS,format=pix_fmts=yuv420p10,fps=24000/1001,scale=1920:1080:flags=bicubic[main];[1:v]settb=AVTB,setpts=PTS-STARTPTS,format=pix_fmts=yuv420p,fps=24000/1001,scale=1920:1080:flags=bicubic[ref];[main][ref]psnr=eof_action=endall:stats_file='D\\:/Convert/FFMetrics/logs/psnr_logfile-6.txt'" -f null -
Input #0, matroska,webm, from 'G:\Аниме\[Топ]\Рыцарь-вампир\ТВ-2\[JamClub] Vampire Knight Guilty - 07_HEVC.mkv':
  Metadata:
    COMPATIBLE_BRANDS: isomiso2avc1mp41
    MAJOR_BRAND     : isom
    MINOR_VERSION   : 512
    ENCODER         : Lavf61.7.100
  Duration: 00:24:22.86, start: -0.001000, bitrate: 1249 kb/s
  Stream #0:0: Video: hevc (Main 10), yuv420p10le(tv, bt709, progressive), 1920x1080 [SAR 1:1 DAR 16:9], 23.98 fps, 23.98 tbr, 1k tbn (default)
      Metadata:
        HANDLER_NAME    : VideoHandler
        VENDOR_ID       : [0][0][0][0]
        ENCODER         : Lavc61.19.100 libx265
        BPS             : 1050516
        DURATION        : 00:24:22.794708333
        NUMBER_OF_FRAMES: 43707
        NUMBER_OF_BYTES : 192086231
        _STATISTICS_WRITING_APP: mkvpropedit v66.0.0 ('Josie') 64-bit
        _STATISTICS_WRITING_DATE_UTC: 2025-06-16 11:26:55
        _STATISTICS_TAGS: BPS DURATION NUMBER_OF_FRAMES NUMBER_OF_BYTES
  Stream #0:1(eng): Audio: aac (LC), 48000 Hz, stereo, fltp (default)
      Metadata:
        HANDLER_NAME    : SoundHandler
        VENDOR_ID       : [0][0][0][0]
        ENCODER         : Lavc61.19.100 aac
        BPS             : 194814
        DURATION        : 00:24:22.821000000
        NUMBER_OF_FRAMES: 68571
        NUMBER_OF_BYTES : 35622333
        _STATISTICS_WRITING_APP: mkvpropedit v66.0.0 ('Josie') 64-bit
        _STATISTICS_WRITING_DATE_UTC: 2025-06-16 11:26:55
        _STATISTICS_TAGS: BPS DURATION NUMBER_OF_FRAMES NUMBER_OF_BYTES
Input #1, mov,mp4,m4a,3gp,3g2,mj2, from 'G:\Аниме\[Топ]\Рыцарь-вампир\ТВ-2\[JamClub] Vampire Knight Guilty - 07.mp4':
  Metadata:
    major_brand     : isom
    minor_version   : 512
    compatible_brands: isomiso2avc1mp41
    encoder         : Lavf60.16.100
  Duration: 00:24:22.84, start: 0.000000, bitrate: 4310 kb/s
  Stream #1:0[0x1](und): Video: h264 (High) (avc1 / 0x31637661), yuv420p(progressive), 1920x1080 [SAR 1:1 DAR 16:9], 4110 kb/s, 29.88 fps, 23.98 tbr, 90k tbn (default)
      Metadata:
        handler_name    : VideoHandler
        vendor_id       : [0][0][0][0]
  Stream #1:1[0x2](eng): Audio: aac (LC) (mp4a / 0x6134706D), 48000 Hz, stereo, fltp, 191 kb/s (default)
      Metadata:
        handler_name    : SoundHandler
        vendor_id       : [0][0][0][0]
Stream mapping:
  Stream #0:0 (hevc) -> settb:default
  Stream #1:0 (h264) -> settb:default
  psnr:default -> Stream #0:0 (wrapped_avframe)
  Stream #0:1 -> #0:1 (aac (native) -> pcm_s16le (native))
Output #0, null, to 'pipe:':
  Metadata:
    COMPATIBLE_BRANDS: isomiso2avc1mp41
    MAJOR_BRAND     : isom
    MINOR_VERSION   : 512
    encoder         : Lavf61.7.100
  Stream #0:0: Video: wrapped_avframe, yuv420p10le(tv, bt709, progressive), 1920x1080 [SAR 1:1 DAR 16:9], q=2-31, 200 kb/s, 23.98 fps, 23.98 tbn
      Metadata:
        encoder         : Lavc61.19.100 wrapped_avframe
  Stream #0:1(eng): Audio: pcm_s16le, 48000 Hz, stereo, s16, 1536 kb/s (default)
      Metadata:
        HANDLER_NAME    : SoundHandler
        VENDOR_ID       : [0][0][0][0]
        _STATISTICS_TAGS: BPS DURATION NUMBER_OF_FRAMES NUMBER_OF_BYTES
        BPS             : 194814
        DURATION        : 00:24:22.821000000
        NUMBER_OF_FRAMES: 68571
        NUMBER_OF_BYTES : 35622333
        _STATISTICS_WRITING_APP: mkvpropedit v66.0.0 ('Josie') 64-bit
        _STATISTICS_WRITING_DATE_UTC: 2025-06-16 11:26:55
        encoder         : Lavc61.19.100 pcm_s16le
frame=  106 fps=0.0 q=-0.0 size=N/A time=00:00:04.42 bitrate=N/A speed=8.75x    frame=  269 fps=261 q=-0.0 size=N/A time=00:00:11.21 bitrate=N/A speed=10.9x    frame=  464 fps=301 q=-0.0 size=N/A time=00:00:19.35 bitrate=N/A speed=12.6x    frame=  694 fps=336 q=-0.0 size=N/A time=00:00:28.94 bitrate=N/A speed=  14x    frame=  910 fps=354 q=-0.0 size=N/A time=00:00:37.95 bitrate=N/A speed=14.7x    frame= 1138 fps=369 q=-0.0 size=N/A time=00:00:47.46 bitrate=N/A speed=15.4x    frame= 1380 fps=382 q=-0.0 size=N/A time=00:00:57.55 bitrate=N/A speed=15.9x    frame= 1615 fps=392 q=-0.0 size=N/A time=00:01:07.35 bitrate=N/A speed=16.3x    frame= 1843 fps=398 q=-0.0 size=N/A time=00:01:16.86 bitrate=N/A speed=16.6x    frame= 2065 fps=400 q=-0.0 size=N/A time=00:01:26.12 bitrate=N/A speed=16.7x    frame= 2309 fps=407 q=-0.0 size=N/A time=00:01:36.30 bitrate=N/A speed=  17x    frame= 2532 fps=410 q=-0.0 size=N/A time=00:01:45.60 bitrate=N/A speed=17.1x    frame= 2780 fps=415 q=-0.0 size=N/A time=00:01:55.94 bitrate=N/A speed=17.3x    frame= 3026 fps=419 q=-0.0 size=N/A time=00:02:06.20 bitrate=N/A speed=17.5x    frame= 3255 fps=421 q=-0.0 size=N/A time=00:02:15.76 bitrate=N/A speed=17.6x    frame= 3501 fps=424 q=-0.0 size=N/A time=00:02:26.02 bitrate=N/A speed=17.7x    frame= 3729 fps=426 q=-0.0 size=N/A time=00:02:35.53 bitrate=N/A speed=17.8x    frame= 3951 fps=426 q=-0.0 size=N/A time=00:02:44.78 bitrate=N/A speed=17.7x    frame= 4159 fps=425 q=-0.0 size=N/A time=00:02:53.46 bitrate=N/A speed=17.7x    frame= 4367 fps=424 q=-0.0 size=N/A time=00:03:02.14 bitrate=N/A speed=17.7x    frame= 4573 fps=422 q=-0.0 size=N/A time=00:03:10.73 bitrate=N/A speed=17.6x    frame= 4777 fps=421 q=-0.0 size=N/A time=00:03:19.24 bitrate=N/A speed=17.5x    frame= 5000 fps=421 q=-0.0 size=N/A time=00:03:28.54 bitrate=N/A speed=17.6x    frame= 5207 fps=421 q=-0.0 size=N/A time=00:03:37.17 bitrate=N/A speed=17.5x    frame= 5417 fps=420 q=-0.0 size=N/A time=00:03:45.93 bitrate=N/A speed=17.5x    frame= 5571 fps=415 q=-0.0 size=N/A time=00:03:52.35 bitrate=N/A speed=17.3x    frame= 5794 fps=416 q=-0.0 size=N/A time=00:04:01.65 bitrate=N/A speed=17.3x    frame= 6014 fps=416 q=-0.0 size=N/A time=00:04:10.83 bitrate=N/A speed=17.4x    frame= 6224 fps=416 q=-0.0 size=N/A time=00:04:19.59 bitrate=N/A speed=17.3x    frame= 6415 fps=414 q=-0.0 size=N/A time=00:04:27.55 bitrate=N/A speed=17.3x    frame= 6601 fps=413 q=-0.0 size=N/A time=00:04:35.31 bitrate=N/A speed=17.2x    frame= 6802 fps=412 q=-0.0 size=N/A time=00:04:43.70 bitrate=N/A speed=17.2x    frame= 6982 fps=410 q=-0.0 size=N/A time=00:04:51.20 bitrate=N/A speed=17.1x    frame= 7177 fps=409 q=-0.0 size=N/A time=00:04:59.34 bitrate=N/A speed=17.1x    frame= 7411 fps=410 q=-0.0 size=N/A time=00:05:09.10 bitrate=N/A speed=17.1x    frame= 7656 fps=412 q=-0.0 size=N/A time=00:05:19.31 bitrate=N/A speed=17.2x    frame= 7850 fps=411 q=-0.0 size=N/A time=00:05:27.41 bitrate=N/A speed=17.2x    frame= 8086 fps=412 q=-0.0 size=N/A time=00:05:37.25 bitrate=N/A speed=17.2x    frame= 8324 fps=414 q=-0.0 size=N/A time=00:05:47.18 bitrate=N/A speed=17.3x    frame= 8561 fps=415 q=-0.0 size=N/A time=00:05:57.06 bitrate=N/A speed=17.3x    frame= 8805 fps=416 q=-0.0 size=N/A time=00:06:07.24 bitrate=N/A speed=17.4x    frame= 9053 fps=418 q=-0.0 size=N/A time=00:06:17.58 bitrate=N/A speed=17.4x    frame= 9292 fps=419 q=-0.0 size=N/A time=00:06:27.55 bitrate=N/A speed=17.5x    frame= 9515 fps=419 q=-0.0 size=N/A time=00:06:36.85 bitrate=N/A speed=17.5x    frame= 9754 fps=420 q=-0.0 size=N/A time=00:06:46.82 bitrate=N/A speed=17.5x    frame= 9949 fps=419 q=-0.0 size=N/A time=00:06:54.95 bitrate=N/A speed=17.5x    frame=10145 fps=418 q=-0.0 size=N/A time=00:07:03.13 bitrate=N/A speed=17.4x    frame=10370 fps=418 q=-0.0 size=N/A time=00:07:12.51 bitrate=N/A speed=17.5x    frame=10598 fps=419 q=-0.0 size=N/A time=00:07:22.02 bitrate=N/A speed=17.5x    frame=10837 fps=420 q=-0.0 size=N/A time=00:07:31.99 bitrate=N/A speed=17.5x    frame=11046 fps=420 q=-0.0 size=N/A time=00:07:40.71 bitrate=N/A speed=17.5x    frame=11270 fps=420 q=-0.0 size=N/A time=00:07:50.05 bitrate=N/A speed=17.5x    frame=11476 fps=420 q=-0.0 size=N/A time=00:07:58.64 bitrate=N/A speed=17.5x    frame=11684 fps=419 q=-0.0 size=N/A time=00:08:07.32 bitrate=N/A speed=17.5x    frame=11922 fps=420 q=-0.0 size=N/A time=00:08:17.24 bitrate=N/A speed=17.5x    frame=12150 fps=420 q=-0.0 size=N/A time=00:08:26.75 bitrate=N/A speed=17.5x    frame=12387 fps=421 q=-0.0 size=N/A time=00:08:36.64 bitrate=N/A speed=17.6x    frame=12627 fps=422 q=-0.0 size=N/A time=00:08:46.65 bitrate=N/A speed=17.6x    frame=12860 fps=422 q=-0.0 size=N/A time=00:08:56.36 bitrate=N/A speed=17.6x    frame=13093 fps=423 q=-0.0 size=N/A time=00:09:06.08 bitrate=N/A speed=17.6x    frame=13334 fps=423 q=-0.0 size=N/A time=00:09:16.13 bitrate=N/A speed=17.7x    frame=13570 fps=424 q=-0.0 size=N/A time=00:09:25.98 bitrate=N/A speed=17.7x    frame=13812 fps=425 q=-0.0 size=N/A time=00:09:36.07 bitrate=N/A speed=17.7x    frame=14031 fps=425 q=-0.0 size=N/A time=00:09:45.20 bitrate=N/A speed=17.7x    frame=14218 fps=424 q=-0.0 size=N/A time=00:09:53.00 bitrate=N/A speed=17.7x    frame=14447 fps=424 q=-0.0 size=N/A time=00:10:02.56 bitrate=N/A speed=17.7x    frame=14689 fps=425 q=-0.0 size=N/A time=00:10:12.65 bitrate=N/A speed=17.7x    frame=14918 fps=425 q=-0.0 size=N/A time=00:10:22.20 bitrate=N/A speed=17.7x    frame=15115 fps=424 q=-0.0 size=N/A time=00:10:30.42 bitrate=N/A speed=17.7x    frame=15302 fps=423 q=-0.0 size=N/A time=00:10:38.22 bitrate=N/A speed=17.7x    frame=15509 fps=423 q=-0.0 size=N/A time=00:10:46.85 bitrate=N/A speed=17.6x    frame=15693 fps=422 q=-0.0 size=N/A time=00:10:54.52 bitrate=N/A speed=17.6x    frame=15903 fps=422 q=-0.0 size=N/A time=00:11:03.28 bitrate=N/A speed=17.6x    frame=16137 fps=422 q=-0.0 size=N/A time=00:11:13.04 bitrate=N/A speed=17.6x    frame=16374 fps=423 q=-0.0 size=N/A time=00:11:22.93 bitrate=N/A speed=17.6x    frame=16606 fps=423 q=-0.0 size=N/A time=00:11:32.60 bitrate=N/A speed=17.6x    frame=16841 fps=423 q=-0.0 size=N/A time=00:11:42.41 bitrate=N/A speed=17.7x    frame=17053 fps=423 q=-0.0 size=N/A time=00:11:51.25 bitrate=N/A speed=17.7x    frame=17307 fps=424 q=-0.0 size=N/A time=00:12:01.84 bitrate=N/A speed=17.7x    frame=17510 fps=424 q=-0.0 size=N/A time=00:12:10.31 bitrate=N/A speed=17.7x    frame=17740 fps=424 q=-0.0 size=N/A time=00:12:19.90 bitrate=N/A speed=17.7x    frame=17963 fps=424 q=-0.0 size=N/A time=00:12:29.20 bitrate=N/A speed=17.7x    frame=18217 fps=425 q=-0.0 size=N/A time=00:12:39.80 bitrate=N/A speed=17.7x    frame=18426 fps=425 q=-0.0 size=N/A time=00:12:48.51 bitrate=N/A speed=17.7x    frame=18640 fps=425 q=-0.0 size=N/A time=00:12:57.44 bitrate=N/A speed=17.7x    frame=18861 fps=425 q=-0.0 size=N/A time=00:13:06.66 bitrate=N/A speed=17.7x    frame=19089 fps=425 q=-0.0 size=N/A time=00:13:16.17 bitrate=N/A speed=17.7x    frame=19317 fps=425 q=-0.0 size=N/A time=00:13:25.67 bitrate=N/A speed=17.7x    frame=19541 fps=425 q=-0.0 size=N/A time=00:13:35.02 bitrate=N/A speed=17.7x    frame=19761 fps=425 q=-0.0 size=N/A time=00:13:44.19 bitrate=N/A speed=17.7x    frame=19977 fps=425 q=-0.0 size=N/A time=00:13:53.20 bitrate=N/A speed=17.7x    frame=20214 fps=425 q=-0.0 size=N/A time=00:14:03.09 bitrate=N/A speed=17.7x    frame=20434 fps=425 q=-0.0 size=N/A time=00:14:12.26 bitrate=N/A speed=17.7x    frame=20655 fps=425 q=-0.0 size=N/A time=00:14:21.48 bitrate=N/A speed=17.7x    frame=20869 fps=425 q=-0.0 size=N/A time=00:14:30.41 bitrate=N/A speed=17.7x    frame=21084 fps=425 q=-0.0 size=N/A time=00:14:39.37 bitrate=N/A speed=17.7x    frame=21308 fps=425 q=-0.0 size=N/A time=00:14:48.72 bitrate=N/A speed=17.7x    frame=21536 fps=426 q=-0.0 size=N/A time=00:14:58.23 bitrate=N/A speed=17.7x    frame=21769 fps=426 q=-0.0 size=N/A time=00:15:07.94 bitrate=N/A speed=17.8x    frame=22013 fps=426 q=-0.0 size=N/A time=00:15:18.12 bitrate=N/A speed=17.8x    frame=22249 fps=427 q=-0.0 size=N/A time=00:15:27.96 bitrate=N/A speed=17.8x    frame=22473 fps=427 q=-0.0 size=N/A time=00:15:37.31 bitrate=N/A speed=17.8x    frame=22702 fps=427 q=-0.0 size=N/A time=00:15:46.86 bitrate=N/A speed=17.8x    frame=22931 fps=427 q=-0.0 size=N/A time=00:15:56.41 bitrate=N/A speed=17.8x    frame=23169 fps=427 q=-0.0 size=N/A time=00:16:06.34 bitrate=N/A speed=17.8x    frame=23415 fps=428 q=-0.0 size=N/A time=00:16:16.60 bitrate=N/A speed=17.8x    frame=23655 fps=428 q=-0.0 size=N/A time=00:16:26.61 bitrate=N/A speed=17.9x    frame=23893 fps=429 q=-0.0 size=N/A time=00:16:36.53 bitrate=N/A speed=17.9x    frame=24123 fps=429 q=-0.0 size=N/A time=00:16:46.13 bitrate=N/A speed=17.9x    frame=24353 fps=429 q=-0.0 size=N/A time=00:16:55.72 bitrate=N/A speed=17.9x    frame=24584 fps=429 q=-0.0 size=N/A time=00:17:05.35 bitrate=N/A speed=17.9x    frame=24831 fps=429 q=-0.0 size=N/A time=00:17:15.65 bitrate=N/A speed=17.9x    frame=25070 fps=430 q=-0.0 size=N/A time=00:17:25.62 bitrate=N/A speed=17.9x    frame=25313 fps=430 q=-0.0 size=N/A time=00:17:35.76 bitrate=N/A speed=17.9x    frame=25561 fps=430 q=-0.0 size=N/A time=00:17:46.10 bitrate=N/A speed=  18x    frame=25794 fps=431 q=-0.0 size=N/A time=00:17:55.82 bitrate=N/A speed=  18x    frame=26027 fps=431 q=-0.0 size=N/A time=00:18:05.54 bitrate=N/A speed=  18x    frame=26257 fps=431 q=-0.0 size=N/A time=00:18:15.13 bitrate=N/A speed=  18x    frame=26483 fps=431 q=-0.0 size=N/A time=00:18:24.56 bitrate=N/A speed=  18x    frame=26699 fps=431 q=-0.0 size=N/A time=00:18:33.57 bitrate=N/A speed=  18x    frame=26905 fps=431 q=-0.0 size=N/A time=00:18:42.16 bitrate=N/A speed=  18x    frame=27119 fps=430 q=-0.0 size=N/A time=00:18:51.08 bitrate=N/A speed=17.9x    frame=27283 fps=429 q=-0.0 size=N/A time=00:18:57.92 bitrate=N/A speed=17.9x    frame=27495 fps=429 q=-0.0 size=N/A time=00:19:06.77 bitrate=N/A speed=17.9x    frame=27731 fps=430 q=-0.0 size=N/A time=00:19:16.61 bitrate=N/A speed=17.9x    frame=27914 fps=429 q=-0.0 size=N/A time=00:19:24.24 bitrate=N/A speed=17.9x    frame=28107 fps=429 q=-0.0 size=N/A time=00:19:32.29 bitrate=N/A speed=17.9x    frame=28334 fps=429 q=-0.0 size=N/A time=00:19:41.76 bitrate=N/A speed=17.9x    frame=28545 fps=428 q=-0.0 size=N/A time=00:19:50.56 bitrate=N/A speed=17.9x    frame=28781 fps=429 q=-0.0 size=N/A time=00:20:00.40 bitrate=N/A speed=17.9x    frame=29012 fps=429 q=-0.0 size=N/A time=00:20:10.04 bitrate=N/A speed=17.9x    frame=29222 fps=429 q=-0.0 size=N/A time=00:20:18.80 bitrate=N/A speed=17.9x    frame=29407 fps=428 q=-0.0 size=N/A time=00:20:26.51 bitrate=N/A speed=17.9x    frame=29624 fps=428 q=-0.0 size=N/A time=00:20:35.56 bitrate=N/A speed=17.9x    frame=29857 fps=428 q=-0.0 size=N/A time=00:20:45.28 bitrate=N/A speed=17.9x    frame=30078 fps=428 q=-0.0 size=N/A time=00:20:54.50 bitrate=N/A speed=17.9x    frame=30295 fps=428 q=-0.0 size=N/A time=00:21:03.55 bitrate=N/A speed=17.9x    frame=30525 fps=428 q=-0.0 size=N/A time=00:21:13.14 bitrate=N/A speed=17.9x    frame=30761 fps=428 q=-0.0 size=N/A time=00:21:22.99 bitrate=N/A speed=17.9x    frame=30974 fps=428 q=-0.0 size=N/A time=00:21:31.87 bitrate=N/A speed=17.9x    frame=31213 fps=429 q=-0.0 size=N/A time=00:21:41.84 bitrate=N/A speed=17.9x    frame=31433 fps=429 q=-0.0 size=N/A time=00:21:51.01 bitrate=N/A speed=17.9x    frame=31633 fps=428 q=-0.0 size=N/A time=00:21:59.35 bitrate=N/A speed=17.9x    frame=31846 fps=428 q=-0.0 size=N/A time=00:22:08.24 bitrate=N/A speed=17.9x    frame=32064 fps=428 q=-0.0 size=N/A time=00:22:17.33 bitrate=N/A speed=17.9x    frame=32291 fps=428 q=-0.0 size=N/A time=00:22:26.80 bitrate=N/A speed=17.9x    frame=32502 fps=428 q=-0.0 size=N/A time=00:22:35.60 bitrate=N/A speed=17.9x    frame=32731 fps=428 q=-0.0 size=N/A time=00:22:45.15 bitrate=N/A speed=17.9x    frame=32948 fps=428 q=-0.0 size=N/A time=00:22:54.20 bitrate=N/A speed=17.9x    frame=33163 fps=428 q=-0.0 size=N/A time=00:23:03.17 bitrate=N/A speed=17.9x    frame=33354 fps=428 q=-0.0 size=N/A time=00:23:11.13 bitrate=N/A speed=17.8x    frame=33565 fps=428 q=-0.0 size=N/A time=00:23:19.94 bitrate=N/A speed=17.8x    frame=33764 fps=427 q=-0.0 size=N/A time=00:23:28.24 bitrate=N/A speed=17.8x    frame=33985 fps=427 q=-0.0 size=N/A time=00:23:37.45 bitrate=N/A speed=17.8x    frame=34202 fps=427 q=-0.0 size=N/A time=00:23:46.50 bitrate=N/A speed=17.8x    frame=34437 fps=427 q=-0.0 size=N/A time=00:23:56.30 bitrate=N/A speed=17.8x    frame=34636 fps=427 q=-0.0 size=N/A time=00:24:04.60 bitrate=N/A speed=17.8x    frame=34826 fps=427 q=-0.0 size=N/A time=00:24:12.53 bitrate=N/A speed=17.8x    [Parsed_psnr_10 @ 000002d57da03dc0] PSNR y:49.239858 u:51.916221 v:52.443543 average:50.015902 min:25.938618 max:inf
[out#0/null @ 000002d578a9bb80] video:15070KiB audio:274284KiB subtitle:0KiB other streams:0KiB global headers:0KiB muxing overhead: unknown
frame=35072 fps=427 q=-0.0 Lsize=N/A time=00:24:22.79 bitrate=N/A speed=17.8x    
